<svg width="24" height="24" viewBox="0 0 24 24" fill="none" xmlns="http://www.w3.org/2000/svg">
<g clip-path="url(#clip0_3017_30657)">
<rect width="24" height="24" rx="12" fill="white"/>
<path d="M6.55179 12.9027C6.02143 12.9563 5.02232 13.1893 4.47857 13.6687C2.84464 15.0884 3.82232 17.6866 7.13036 17.6866C9.05357 17.6866 10.9741 16.4625 12.4821 14.4991C10.3339 13.4571 8.51518 12.7098 6.55179 12.9027ZM18.8866 14.6973C21.5679 15.592 23.0304 15.8491 23.3518 15.8973C23.7827 14.6432 24.0018 13.3261 24 12C24 5.37321 18.6268 0 12 0C5.37321 0 0 5.37321 0 12C0 18.6268 5.37321 24 12 24C16.1759 24 19.8536 21.8652 22.0045 18.6295C19.9795 17.8313 16.283 16.3527 14.3223 15.4125C12.45 17.708 10.0339 19.1036 7.52679 19.1036C3.28393 19.1036 1.84554 15.4045 3.85179 12.9696C4.28839 12.4393 5.03571 11.933 6.19018 11.6464C7.99821 11.2045 10.8777 11.9223 13.575 12.8089C14.0598 11.917 14.4696 10.9366 14.7723 9.89196H6.45804V9.05357H10.7438V7.54821H5.55268V6.70982H10.7438V4.56429C10.7438 4.56429 10.7437 4.20268 11.1107 4.20268H13.2054V6.70982H18.3402V7.54821H13.208V9.05357H17.3973C16.9955 10.6902 16.3875 12.1982 15.6241 13.5214C16.8964 13.9795 18.0375 14.4134 18.8866 14.6973Z" fill="#2169FB"/>
</g>
<defs>
<clipPath id="clip0_3017_30657">
<rect width="24" height="24" rx="12" fill="white"/>
</clipPath>
</defs>
</svg>
