<svg width="24" height="24" viewBox="0 0 24 24" fill="none" xmlns="http://www.w3.org/2000/svg">
<rect width="24" height="24" rx="12" fill="#029BA5"/>
<path d="M14.1012 14.0034H15.2875V15.1411H14.1012V14.0034ZM15.5629 14.0034H16.7484V15.1411H15.5629V14.0034ZM17.0879 14.0034H18.2738V15.1411H17.0879V14.0034H17.0879ZM4 15.7905C4 16.4556 4.64841 17 5.44068 17H18.5574C19.3508 17 20 16.4556 20 15.7905V10.7061H4.00002V15.7905H4ZM18.5574 7H5.4407C4.64843 7 4.00002 7.54407 4.00002 8.20886V9.55996H20V8.20886C20 7.54407 19.3508 7 18.5574 7H18.5574Z" fill="white"/>
</svg>
