<svg width="24" height="24" viewBox="0 0 24 24" fill="none" xmlns="http://www.w3.org/2000/svg">
<rect width="24" height="24" rx="12" fill="#52C41A"/>
<path d="M7.37369 9.06455C6.88149 9.06455 6.39864 8.76177 6.39864 8.31216C6.39864 7.85377 6.88152 7.55977 7.36432 7.55977C7.85652 7.55977 8.17221 7.85383 8.17221 8.31216C8.18157 8.76186 7.85646 9.06455 7.37367 9.06455H7.37369ZM11.8957 7.55975C12.3879 7.55975 12.7036 7.85382 12.7036 8.31214C12.7036 8.76185 12.3879 9.06454 11.8957 9.06454C11.4128 9.06454 10.9207 8.76176 10.9207 8.31214C10.9207 7.85376 11.4128 7.55975 11.8957 7.55975ZM15.3779 9.19418C15.5822 9.19418 15.7865 9.20289 16 9.22873C15.4336 6.79872 12.6478 5 9.47214 5C5.91578 5 3.00002 7.25702 3 10.1195C3 11.7799 3.96568 13.129 5.59069 14.184L4.94071 16L7.20646 14.945C8.01436 15.0919 8.66437 15.2477 9.47222 15.2477C9.66716 15.2477 9.87148 15.239 10.0757 15.2218C9.9458 14.824 9.87147 14.3916 9.87147 13.9592C9.87147 11.3304 12.295 9.19432 15.3779 9.19432L15.3779 9.19418Z" fill="white"/>
<path d="M17.2746 12.8668C16.9587 12.8668 16.6335 12.5522 16.6335 12.2284C16.6428 11.9045 16.9588 11.5809 17.2746 11.5809C17.767 11.5809 18.0922 11.9047 18.0922 12.2284C18.0922 12.5523 17.7669 12.8668 17.2746 12.8668ZM13.7164 12.8668C13.4004 12.8668 13.0752 12.5522 13.0752 12.2284C13.0752 11.9046 13.4005 11.5809 13.7164 11.5809C14.2088 11.5809 14.5247 11.9047 14.5247 12.2284C14.534 12.5523 14.2087 12.8668 13.7164 12.8668ZM21 13.6809C21 11.1 18.408 9 15.5 9C12.4249 9 10 11.0999 10 13.6809C10 16.2618 12.4248 18.3525 15.5 18.3525C16.1503 18.3525 16.8007 18.186 17.4418 18.0286L19.2256 19L18.7332 17.3904C20.0338 16.4191 21 15.1333 21 13.6809L21 13.6809Z" fill="white"/>
</svg>
